<mxfile host="65bd71144e">
    <diagram name="Page-1" id="RNsy6MD_wa4XsIEnLjgW">
        <mxGraphModel dx="705" dy="330" grid="1" gridSize="10" guides="1" tooltips="1" connect="1" arrows="1" fold="1" page="1" pageScale="1" pageWidth="1654" pageHeight="1169" math="0" shadow="0">
            <root>
                <mxCell id="0"/>
                <mxCell id="1" parent="0"/>
                <mxCell id="3GARg9OZ9SZcJMrhQWg2-7" value="Services" style="rounded=0;whiteSpace=wrap;html=1;dashed=1;dashPattern=8 8;align=left;verticalAlign=bottom;" parent="1" vertex="1">
                    <mxGeometry x="290" y="610" width="480" height="110" as="geometry"/>
                </mxCell>
                <mxCell id="3GARg9OZ9SZcJMrhQWg2-2" value="&amp;lt;cms&amp;gt;&lt;br&gt;Drupal" style="rounded=0;whiteSpace=wrap;html=1;" parent="1" vertex="1">
                    <mxGeometry x="300" y="630" width="120" height="60" as="geometry"/>
                </mxCell>
                <mxCell id="3GARg9OZ9SZcJMrhQWg2-3" value="&amp;lt;ecommerce&amp;gt;&lt;br&gt;Prestashop" style="rounded=0;whiteSpace=wrap;html=1;" parent="1" vertex="1">
                    <mxGeometry x="470" y="630" width="120" height="60" as="geometry"/>
                </mxCell>
                <mxCell id="3GARg9OZ9SZcJMrhQWg2-5" value="&amp;lt;marketing&amp;gt;&lt;br&gt;Mautic" style="rounded=0;whiteSpace=wrap;html=1;" parent="1" vertex="1">
                    <mxGeometry x="640" y="630" width="120" height="60" as="geometry"/>
                </mxCell>
                <mxCell id="3GARg9OZ9SZcJMrhQWg2-12" value="" style="edgeStyle=orthogonalEdgeStyle;rounded=0;orthogonalLoop=1;jettySize=auto;html=1;startArrow=classic;startFill=1;" parent="1" source="3GARg9OZ9SZcJMrhQWg2-6" target="3GARg9OZ9SZcJMrhQWg2-7" edge="1">
                    <mxGeometry relative="1" as="geometry">
                        <Array as="points">
                            <mxPoint x="650" y="570"/>
                            <mxPoint x="650" y="570"/>
                        </Array>
                    </mxGeometry>
                </mxCell>
                <mxCell id="3GARg9OZ9SZcJMrhQWg2-6" value="&amp;lt;api gateway&amp;gt;&lt;br&gt;Apache Apisix" style="rounded=0;whiteSpace=wrap;html=1;" parent="1" vertex="1">
                    <mxGeometry x="300" y="420" width="470" height="60" as="geometry"/>
                </mxCell>
                <mxCell id="3GARg9OZ9SZcJMrhQWg2-8" value="&amp;lt;IAM&amp;gt;&lt;br&gt;Keycloack" style="rounded=0;whiteSpace=wrap;html=1;rotation=-90;" parent="1" vertex="1">
                    <mxGeometry x="17.5" y="497.5" width="395" height="60" as="geometry"/>
                </mxCell>
                <mxCell id="dWw5zkkJfIuGxFYLn_9A-6" style="edgeStyle=orthogonalEdgeStyle;rounded=0;orthogonalLoop=1;jettySize=auto;html=1;" parent="1" source="3GARg9OZ9SZcJMrhQWg2-9" edge="1">
                    <mxGeometry relative="1" as="geometry">
                        <mxPoint x="250" y="548" as="targetPoint"/>
                    </mxGeometry>
                </mxCell>
                <mxCell id="3GARg9OZ9SZcJMrhQWg2-9" value="&amp;lt;integrator&amp;gt;&lt;br&gt;Apache Camel" style="rounded=0;whiteSpace=wrap;html=1;" parent="1" vertex="1">
                    <mxGeometry x="300" y="518" width="280" height="60" as="geometry"/>
                </mxCell>
                <mxCell id="3GARg9OZ9SZcJMrhQWg2-11" value="" style="edgeStyle=orthogonalEdgeStyle;rounded=0;orthogonalLoop=1;jettySize=auto;html=1;startArrow=classic;startFill=1;" parent="1" source="3GARg9OZ9SZcJMrhQWg2-10" target="3GARg9OZ9SZcJMrhQWg2-6" edge="1">
                    <mxGeometry relative="1" as="geometry"/>
                </mxCell>
                <mxCell id="3GARg9OZ9SZcJMrhQWg2-10" value="&amp;lt;front&amp;gt;&lt;br&gt;React" style="rounded=0;whiteSpace=wrap;html=1;" parent="1" vertex="1">
                    <mxGeometry x="300" y="330" width="470" height="60" as="geometry"/>
                </mxCell>
                <mxCell id="3GARg9OZ9SZcJMrhQWg2-23" style="edgeStyle=orthogonalEdgeStyle;rounded=0;orthogonalLoop=1;jettySize=auto;html=1;" parent="1" source="3GARg9OZ9SZcJMrhQWg2-22" target="3GARg9OZ9SZcJMrhQWg2-10" edge="1">
                    <mxGeometry relative="1" as="geometry"/>
                </mxCell>
                <mxCell id="3GARg9OZ9SZcJMrhQWg2-22" value="User" style="shape=umlActor;verticalLabelPosition=bottom;verticalAlign=top;html=1;outlineConnect=0;" parent="1" vertex="1">
                    <mxGeometry x="520" y="200" width="30" height="60" as="geometry"/>
                </mxCell>
                <mxCell id="dWw5zkkJfIuGxFYLn_9A-2" style="edgeStyle=orthogonalEdgeStyle;rounded=0;orthogonalLoop=1;jettySize=auto;html=1;entryX=0.313;entryY=0.018;entryDx=0;entryDy=0;entryPerimeter=0;startArrow=classic;startFill=1;" parent="1" source="3GARg9OZ9SZcJMrhQWg2-9" target="3GARg9OZ9SZcJMrhQWg2-7" edge="1">
                    <mxGeometry relative="1" as="geometry"/>
                </mxCell>
                <mxCell id="dWw5zkkJfIuGxFYLn_9A-3" style="edgeStyle=orthogonalEdgeStyle;rounded=0;orthogonalLoop=1;jettySize=auto;html=1;entryX=0.296;entryY=1.033;entryDx=0;entryDy=0;entryPerimeter=0;startArrow=classic;startFill=1;" parent="1" source="3GARg9OZ9SZcJMrhQWg2-9" target="3GARg9OZ9SZcJMrhQWg2-6" edge="1">
                    <mxGeometry relative="1" as="geometry"/>
                </mxCell>
                <mxCell id="dWw5zkkJfIuGxFYLn_9A-7" style="edgeStyle=orthogonalEdgeStyle;rounded=0;orthogonalLoop=1;jettySize=auto;html=1;entryX=0.696;entryY=1;entryDx=0;entryDy=0;entryPerimeter=0;" parent="1" source="3GARg9OZ9SZcJMrhQWg2-6" target="3GARg9OZ9SZcJMrhQWg2-8" edge="1">
                    <mxGeometry relative="1" as="geometry"/>
                </mxCell>
                <mxCell id="dWw5zkkJfIuGxFYLn_9A-8" style="edgeStyle=orthogonalEdgeStyle;rounded=0;orthogonalLoop=1;jettySize=auto;html=1;entryX=0.154;entryY=1.017;entryDx=0;entryDy=0;entryPerimeter=0;" parent="1" source="3GARg9OZ9SZcJMrhQWg2-7" target="3GARg9OZ9SZcJMrhQWg2-8" edge="1">
                    <mxGeometry relative="1" as="geometry"/>
                </mxCell>
            </root>
        </mxGraphModel>
    </diagram>
</mxfile>